<?xml version="1.0" standalone="no"?>
<!DOCTYPE svg PUBLIC "-//W3C//DTD SVG 20010904//EN"
 "http://www.w3.org/TR/2001/REC-SVG-20010904/DTD/svg10.dtd">
<svg version="1.0" xmlns="http://www.w3.org/2000/svg"
 width="300.000000pt" height="75.000000pt" viewBox="0 0 300.000000 75.000000"
 preserveAspectRatio="xMidYMid meet">
<metadata>
Created by potrace 1.10, written by Peter Selinger 2001-2011
</metadata>
<g transform="translate(0.000000,75.000000) scale(0.100000,-0.100000)"
fill="#000000" stroke="none">
<path d="M1297 585 l2 -160 27 -3 26 -4 -4 66 -4 66 102 0 c121 0 129 -5 122
-84 -4 -45 -2 -53 11 -51 9 2 22 4 29 4 8 1 12 18 12 54 0 60 -6 72 -40 86
l-25 9 31 12 c35 12 48 47 38 98 -10 48 -36 57 -189 62 l-140 5 2 -160z m268
114 c11 -11 11 -90 0 -99 -5 -4 -57 -10 -115 -12 l-105 -3 2 65 c1 36 2 65 3
65 54 0 210 -12 215 -16z"/>
<path d="M1665 579 c0 -156 1 -167 18 -163 10 2 69 4 131 5 180 2 211 30 204
182 -3 76 -5 81 -37 108 -33 27 -37 28 -175 31 l-141 3 0 -166z m284 107 c18
-17 21 -30 21 -103 0 -117 -7 -123 -147 -123 l-108 0 2 127 c1 71 2 128 2 128
1 0 48 -2 105 -5 84 -4 108 -9 125 -24z"/>
<path d="M517 583 c1 -158 1 -158 25 -161 23 -3 23 -3 20 95 -2 54 -2 122 0
152 l3 54 45 -64 c24 -35 51 -70 60 -79 47 -48 120 -145 117 -154 -3 -7 12
-10 44 -8 l49 4 0 159 0 159 -27 0 -28 0 6 -137 c4 -76 4 -141 2 -146 -4 -6
-88 91 -88 103 0 3 -9 14 -20 26 -32 32 -109 125 -118 140 -5 9 -24 14 -50 14
l-42 0 2 -157z"/>
<path d="M955 725 c-16 -8 -26 -14 -21 -15 5 0 4 -6 -2 -13 -10 -12 -15 -208
-5 -232 9 -26 85 -47 158 -46 88 2 93 3 133 24 l32 18 2 102 c2 177 7 171
-151 174 -83 2 -125 -2 -146 -12z m206 -15 c44 -12 49 -25 49 -137 0 -115 -2
-116 -149 -114 -35 1 -70 6 -78 12 -14 13 -19 194 -5 216 19 30 114 42 183 23z"/>
<path d="M2058 580 l-3 -160 28 0 27 0 0 160 0 160 -25 0 -24 0 -3 -160z"/>
<path d="M2198 726 c-16 -8 -28 -12 -28 -8 0 4 -5 0 -10 -8 -5 -8 -10 -63 -10
-122 0 -101 2 -109 25 -134 24 -26 33 -28 129 -33 57 -3 102 -3 99 2 -3 6 32
11 40 5 1 -1 12 7 25 17 16 14 22 30 22 58 0 36 -2 38 -27 35 -24 -2 -28 -7
-25 -29 5 -41 -17 -50 -119 -51 -120 0 -122 1 -120 128 1 54 5 102 10 107 16
16 129 30 173 21 39 -8 43 -12 46 -41 3 -29 7 -33 33 -33 32 0 35 10 19 57
-13 35 -7 34 -145 39 -84 4 -116 1 -137 -10z"/>
<path d="M310 331 c-22 -4 -35 -12 -35 -21 -1 -8 -7 -14 -15 -12 -12 3 -12 1
-3 -9 9 -9 8 -17 -3 -35 -9 -13 -15 -25 -15 -29 1 -3 -6 -19 -14 -35 -9 -17
-13 -30 -10 -30 3 0 -2 -11 -11 -24 -8 -14 -15 -28 -14 -31 4 -13 -12 -65 -20
-65 -7 0 -19 24 -26 53 -1 4 -3 9 -4 12 -1 3 -3 8 -4 13 -1 4 -7 17 -14 30 -7
12 -10 22 -6 22 3 0 2 6 -4 13 -6 6 -10 14 -10 17 -1 3 -5 18 -11 33 -6 15
-14 39 -17 52 -8 31 -28 47 -53 43 -20 -3 -20 -4 -5 -33 8 -16 15 -30 14 -30
-1 0 1 -7 4 -15 2 -8 10 -32 16 -52 6 -21 15 -38 20 -38 7 0 11 -12 25 -62 2
-5 4 -10 5 -13 1 -3 3 -8 4 -12 2 -5 9 -21 16 -36 12 -25 18 -28 54 -25 26 2
40 8 39 15 -2 7 2 13 8 13 5 0 7 5 4 11 -4 5 0 18 9 28 9 10 16 23 14 28 -2 5
7 29 19 53 11 25 27 66 33 92 14 55 27 54 36 -3 4 -21 10 -39 15 -39 5 0 6 -7
3 -15 -4 -8 -1 -15 6 -15 6 0 8 -4 5 -10 -3 -5 -1 -10 5 -10 6 0 9 -4 5 -9 -3
-5 -1 -12 5 -16 5 -3 10 -12 10 -20 0 -8 5 -26 12 -42 13 -31 15 -38 17 -53 1
-11 71 -13 86 -2 6 4 12 16 13 27 2 11 8 23 14 26 5 3 11 12 12 20 2 8 13 36
24 62 12 27 22 53 22 58 0 5 7 21 16 34 9 14 12 25 8 25 -5 0 -4 4 1 8 6 4 16
19 23 35 11 27 11 27 -16 21 -47 -10 -52 -13 -46 -29 4 -8 1 -15 -6 -15 -7 0
-10 -7 -6 -15 3 -8 1 -15 -4 -15 -5 0 -12 -16 -16 -35 -3 -19 -10 -35 -16 -35
-5 0 -7 -4 -3 -9 3 -5 1 -12 -5 -16 -6 -4 -8 -11 -5 -16 4 -5 2 -9 -3 -9 -5 0
-15 -21 -22 -47 -17 -64 -26 -72 -35 -31 -4 18 -12 39 -17 46 -6 6 -8 12 -4
12 4 0 -3 18 -14 40 -11 22 -18 40 -15 40 3 0 -2 11 -11 25 -9 14 -13 25 -9
25 4 0 2 6 -4 13 -6 8 -8 17 -4 20 3 4 1 7 -6 7 -7 0 -10 4 -7 9 12 19 -19 37
-54 32z"/>
<path d="M674 325 c-1 -5 -2 -77 -1 -160 l2 -150 139 0 c103 0 140 3 144 12 3
10 -24 13 -115 13 l-118 0 0 58 -1 57 113 -3 c110 -4 113 -3 113 18 0 21 -3
21 -110 18 -61 -2 -110 0 -111 5 -3 37 -1 97 5 97 3 0 51 0 107 0 77 0 98 -3
93 -12 -5 -9 -2 -8 10 1 9 8 16 23 14 33 -3 18 -14 19 -142 21 -85 1 -140 -2
-142 -8z"/>
<path d="M1007 332 c-21 -3 -27 -8 -23 -19 3 -8 6 -79 6 -158 l0 -144 135 -3
c128 -3 136 -2 133 16 -3 17 -12 19 -102 17 -55 -1 -104 -5 -109 -8 -4 -3 -7
63 -6 146 1 83 0 153 -2 154 -2 1 -17 1 -32 -1z"/>
<path d="M1605 331 c-3 -2 -5 -76 -5 -163 l0 -158 26 0 25 0 -2 143 c-1 78 1
141 5 140 9 -2 49 -53 42 -53 -5 0 25 -37 69 -85 41 -45 70 -79 67 -83 -1 -1
13 -16 32 -32 25 -22 44 -30 72 -30 l39 0 -2 163 -1 162 -29 -3 c-15 -2 -28
-5 -28 -5 0 -1 2 -65 5 -142 3 -77 4 -144 2 -148 -2 -5 -18 11 -35 35 -18 24
-35 45 -39 46 -5 2 -8 9 -8 15 0 7 -25 39 -55 72 -30 33 -55 64 -55 68 0 21
-48 55 -83 59 -21 2 -40 2 -42 -1z"/>
<path d="M2415 330 c-16 -6 -37 -9 -46 -6 -21 4 -49 -52 -49 -97 0 -28 22 -56
50 -62 40 -9 109 -17 156 -18 l59 -2 3 -47 c4 -56 -3 -59 -114 -60 -79 -1 -98
7 -99 44 0 15 -8 24 -28 29 -33 9 -45 -8 -28 -39 6 -11 8 -22 5 -25 -3 -3 9
-13 27 -22 26 -14 54 -16 145 -13 65 2 118 8 124 14 21 21 30 87 17 117 -6 15
-15 27 -19 27 -12 0 -16 1 -48 10 -17 5 -62 10 -99 11 -83 2 -104 15 -99 61 2
20 8 32 16 31 6 -2 12 0 12 5 0 4 35 7 77 7 82 0 103 -9 106 -45 1 -15 6 -18
23 -14 15 4 26 0 34 -13 10 -16 10 -15 4 6 -12 43 -33 89 -45 97 -8 5 -9 3 -4
-7 7 -11 6 -12 -6 -2 -20 16 -137 25 -174 13z"/>
<path d="M2764 331 c-38 -10 -83 -41 -84 -59 0 -7 -4 -11 -9 -7 -6 3 -5 -10 0
-31 10 -36 36 -69 54 -70 6 0 26 -3 45 -7 19 -4 67 -9 105 -10 l70 -2 3 -39
c5 -59 -13 -70 -113 -68 -89 2 -105 8 -105 37 0 14 5 25 12 25 25 0 -2 12 -32
14 -40 3 -46 -12 -25 -58 14 -30 23 -36 60 -42 24 -3 83 -5 130 -3 72 3 89 7
101 23 17 24 18 105 1 127 -13 18 -68 28 -165 30 -71 3 -85 13 -80 61 l3 33
100 0 100 0 3 -26 c2 -21 8 -26 31 -26 24 0 27 3 23 28 -5 32 -29 57 -63 65
-43 11 -133 13 -165 5z"/>
<path d="M1291 168 l3 -163 138 0 c130 0 139 1 136 19 -3 17 -12 18 -116 17
-63 -1 -111 2 -108 7 3 4 6 69 7 143 l1 134 -32 3 -31 3 2 -163z"/>
<path d="M2010 171 l0 -160 139 -3 c117 -3 138 -1 133 11 -4 11 -1 13 14 7 14
-5 16 -4 7 5 -7 7 -50 11 -130 10 l-118 -2 -1 58 -1 58 114 -3 c110 -4 113 -3
113 18 0 21 -3 21 -112 19 l-112 -3 0 52 -1 52 117 0 c105 0 116 2 114 18 -3
15 -18 17 -139 20 l-137 3 0 -160z"/>
</g>
</svg>
